<?xml version="1.0" encoding="utf-8"?>
<!-- Generator: Adobe Illustrator 17.0.0, SVG Export Plug-In . SVG Version: 6.00 Build 0)  -->
<!DOCTYPE svg PUBLIC "-//W3C//DTD SVG 1.1//EN" "http://www.w3.org/Graphics/SVG/1.1/DTD/svg11.dtd">
<svg version="1.1" id="Ebene_1" xmlns="http://www.w3.org/2000/svg" xmlns:xlink="http://www.w3.org/1999/xlink" x="0px" y="0px"
	 width="2923.077px" height="692.308px" viewBox="0 0 2923.077 692.308" enable-background="new 0 0 2923.077 692.308"
	 xml:space="preserve">
<path fill="#FFFFFF" stroke="#010202" stroke-width="5" stroke-miterlimit="10" d="M2225.244,206.737c365,0,365,0,365,0v23.667
	h66.333v-23.667h122v-84.333H2183.91v20h-96.667v-27.667H1731.91v-5.333h-128.667l-0.333,471.333h127.667l0.333-355.333h172.333v7
	h185.333v59h-11v353h71.667v-24h24v10h53.667V565.07h-32.333V332.737h28.667v-41.333h-41.333v-84.208L2225.244,206.737z"/>
<path fill="#FFFFFF" stroke="#000000" stroke-width="5" stroke-miterlimit="10" d="M1423.41,186.487h59v60h-38l-21,22.208v123.792
	h41.333l-0.042,31.625h11.083l-0.25,112.333h-11.125l-0.125,31.375H1356.91l-15.125-14.875V424.227l-15.188,0.031v25.25
	l-32.375,33.75h-11.125v-4.5h1.375l-7.313-6.875v-107l5.844,0.031l0.031-3l-5.875-0.094v-47.203l7.406-7.391l0.052-23.99
	l-15.865-15.167l-4.469,0.063v-0.75l-14.969-0.031v0.781l-4.469-0.094l-6.75,6.813l-157.396-0.073l-6.917-6.625v20.208l5.958,0.042
	l3.917,0.708l4.542,0.792l3.333,0.125l3.208,0.5l3.042,0.208l1.5,0.542l2.333,0.875l1.542,2.292l1.375,2.958l0.833,2.25l0.708,2.125
	l0.708,2.417l0.75,2.208l0.625,2.208l0.875,2.292l0.792,2.292l0.75,2.125l0.542,2.167l0.917,3.417l0.792,7.375l0.708,7.5l0.792,6.75
	l-0.042,2.75l-0.792,5.5l-0.708,7.5l-0.792,6.583l-0.667,5.417l-0.792,2.042l-0.875,2.333l-0.667,2.208l-0.625,2.292l-0.792,2.25
	l-0.792,2.25l-0.75,2.125l-0.792,2.375l-0.708,2.25l-0.792,2.25l-0.708,1.333l-0.708,1.667l-1.583,1.333l-1.458,0.167l-24.125,2.104
	v19.625l2.375,0.125v5.688l-67.438,16v-15.719l-71.354-0.073v15.75l-67.458-15.875v-5.917l2.208,0.042l0.01-80.958H743.723v126.688
	l2.25,0.031v5.969l-65.292,15.708l-2.25,0.042v-8.25h-11.979v8.313l-3-0.083l-65.229-15.75v-45l-210.313-0.125v-63.5l39.833-0.167
	l-0.5-26.333l-39.333-0.5v-62.833l188.167,0.667l-0.229-49.625l15.625-15.75l16.5,15.813v18.625l50.938,0.021v-46.417l14.344-11.292
	h258.781l32.875-31.594l0.125,30.76h239.292l-0.083-16.458l21.833-21.792h115.521l31.313-30.729l0.125,45.813l22.042,21.125
	l14.167-14.167l14.083-0.167L1423.41,186.487z"/>
<g>
</g>
<g>
</g>
<g>
</g>
<g>
</g>
<g>
</g>
<g>
</g>
</svg>
