<?xml version="1.0" encoding="utf-8"?>
<!-- Generator: Adobe Illustrator 17.0.0, SVG Export Plug-In . SVG Version: 6.00 Build 0)  -->
<!DOCTYPE svg PUBLIC "-//W3C//DTD SVG 1.1//EN" "http://www.w3.org/Graphics/SVG/1.1/DTD/svg11.dtd">
<svg version="1.1" xmlns="http://www.w3.org/2000/svg" xmlns:xlink="http://www.w3.org/1999/xlink" x="0px" y="0px"
	 width="2923.077px" height="692.308px" viewBox="0 0 2923.077 692.308" enable-background="new 0 0 2923.077 692.308"
	 xml:space="preserve">
<g id="Ebene_1">
	<path fill="#FFFFFF" stroke="#010202" stroke-width="3" stroke-miterlimit="10" d="M2225.244,206.737c365,0,365,0,365,0v23.667
		h66.333v-23.667h122v-84.333H2183.91v20h-96.667v-27.667H1731.91v-5.333h-128.667l-0.333,471.333h127.667l0.333-355.333h172.333v7
		h185.333v59h-11v353h71.667v-24h24v10h53.667V565.07h-32.333V332.737h28.667v-41.333h-41.333v-84.208L2225.244,206.737z"/>
	<path opacity="0.6" fill="#FFFFFF" stroke="#000000" stroke-width="3" stroke-miterlimit="10" d="M1423.41,186.487h59v60h-38
		l-21,22.208v123.792h41.333l-0.042,31.625h11.083l-0.25,112.333h-11.125l-0.125,31.375H1356.91l-15.125-14.875V424.227
		l-15.188,0.031v25.25l-32.375,33.75h-11.125v-4.5h1.375l-7.313-6.875v-107l5.844,0.031l0.031-3l-5.875-0.094v-47.203l7.406-7.391
		l0.052-23.99l-15.865-15.167l-4.469,0.063v-0.75l-14.969-0.031v0.781l-4.469-0.094l-6.75,6.813l-157.396-0.073l-6.917-6.625v20.208
		l5.958,0.042l3.917,0.708l4.542,0.792l3.333,0.125l3.208,0.5l3.042,0.208l1.5,0.542l2.333,0.875l1.542,2.292l1.375,2.958
		l0.833,2.25l0.708,2.125l0.708,2.417l0.75,2.208l0.625,2.208l0.875,2.292l0.792,2.292l0.75,2.125l0.542,2.167l0.917,3.417
		l0.792,7.375l0.708,7.5l0.792,6.75l-0.042,2.75l-0.792,5.5l-0.708,7.5l-0.792,6.583l-0.667,5.417l-0.792,2.042l-0.875,2.333
		l-0.667,2.208l-0.625,2.292l-0.792,2.25l-0.792,2.25l-0.75,2.125l-0.792,2.375l-0.708,2.25l-0.792,2.25l-0.708,1.333l-0.708,1.667
		l-1.583,1.333l-1.458,0.167l-24.125,2.104v19.625l2.375,0.125v5.688l-67.438,16v-15.719l-71.354-0.073v15.75l-67.458-15.875v-5.917
		l2.208,0.042l0.01-80.958H743.723v126.688l2.25,0.031v5.969l-65.292,15.708l-2.25,0.042v-8.25h-11.979v8.313l-3-0.083
		l-65.229-15.75v-45l-210.313-0.125v-63.5l4.5-0.019l35.334-0.148l-0.5-26.333l-39.333-0.5v-62.833l188.167,0.667l-0.229-49.625
		l15.625-15.75l16.5,15.813v18.625l50.938,0.021v-46.417l14.344-11.292h258.781l32.875-31.594l0.125,30.76h239.292l-0.083-16.458
		l21.833-21.792h115.521l31.313-30.729l0.125,45.813l22.042,21.125l14.167-14.167l14.083-0.167L1423.41,186.487z"/>
	
		<rect x="392.244" y="348.779" fill="#FFFFFF" stroke="#000000" stroke-width="0.75" stroke-miterlimit="10" width="20.917" height="12.083"/>
	
		<rect x="392.244" y="335.8" fill="#FFFFFF" stroke="#000000" stroke-width="0.75" stroke-miterlimit="10" width="20.917" height="12.083"/>
	
		<line fill="none" stroke="#000000" stroke-width="0.75" stroke-miterlimit="10" x1="394.369" y1="335.696" x2="394.369" y2="335.696"/>
	<polyline fill="none" stroke="#000000" stroke-width="0.75" stroke-miterlimit="10" points="403.785,335.8 403.785,347.883 
		403.785,348.779 403.785,360.862 405.66,360.862 405.66,348.779 405.66,347.883 405.66,335.8 407.535,335.8 407.535,347.883 
		407.535,348.779 407.535,360.862 409.452,360.862 409.452,348.779 409.452,347.883 409.452,335.8 411.577,335.8 411.577,347.883 
		411.577,348.779 411.577,360.862 401.785,360.862 401.785,348.779 401.785,347.883 401.785,335.8 399.994,335.8 399.994,347.883 
		399.994,348.779 399.994,360.862 398.035,360.862 398.035,348.987 398.035,347.883 398.035,336.008 396.16,336.008 396.16,347.883 
		396.16,348.987 396.16,360.862 393.994,360.862 393.994,348.987 393.994,348.112 393.994,348.112 393.994,347.883 393.994,336.008 
			"/>
</g>
<g id="Ebene_2">
	
		<image display="none" overflow="visible" width="3348" height="1068" xlink:href="E:\gDrive\Google Drive\HTW\Projekt HTW-App\e.png"  transform="matrix(0.7501 0 0 0.7501 312 -5)">
	</image>
	<g>
	</g>
	<g>
	</g>
	<g>
	</g>
	<g>
	</g>
	<g>
	</g>
	<g>
	</g>
</g>
</svg>
