<?xml version="1.0" encoding="utf-8"?>
<!-- Generator: Adobe Illustrator 17.0.0, SVG Export Plug-In . SVG Version: 6.00 Build 0)  -->
<!DOCTYPE svg PUBLIC "-//W3C//DTD SVG 1.1//EN" "http://www.w3.org/Graphics/SVG/1.1/DTD/svg11.dtd">
<svg version="1.1" id="Ebene_1" xmlns="http://www.w3.org/2000/svg" xmlns:xlink="http://www.w3.org/1999/xlink" x="0px" y="0px"
	 width="1680px" height="838px" viewBox="0 0 1680 838" enable-background="new 0 0 1680 838" xml:space="preserve">
<rect x="365.5" y="109.5" fill="#BCA9A9" width="600" height="154"/>
<rect x="965.5" y="109.5" fill="#BCA9A9" width="124" height="474"/>
<rect x="1089.5" y="109.5" fill="#BCA9A9" width="367" height="154"/>
<rect x="1303.5" y="263.5" fill="#BCA9A9" width="153" height="329"/>
<rect x="365.5" y="263.5" fill="#BCA9A9" width="330" height="329"/>
<rect x="133.5" y="109.5" fill="#BCA9A9" width="288" height="385"/>
<line fill="none" x1="133.5" y1="494.5" x2="220.5" y2="428"/>
<line fill="none" x1="220.5" y1="428" x2="365.5" y2="494.5"/>
<line fill="none" x1="220.5" y1="428" x2="133.5" y2="494.5"/>
<line fill="none" x1="795.5" y1="338.5" x2="793.5" y2="253.5"/>
<g>
	<path d="M684.292,72.289c0.3,0.192,0.996,0.492,1.727,0.492c1.355,0,1.775-0.863,1.763-1.511c-0.012-1.091-0.996-1.559-2.015-1.559
		h-0.587v-0.792h0.587c0.768,0,1.739-0.396,1.739-1.319c0-0.624-0.396-1.175-1.367-1.175c-0.624,0-1.224,0.276-1.559,0.516
		l-0.276-0.768c0.408-0.3,1.199-0.6,2.039-0.6c1.535,0,2.231,0.912,2.231,1.859c0,0.804-0.48,1.487-1.439,1.835v0.024
		c0.959,0.192,1.739,0.911,1.739,2.002c0,1.248-0.972,2.339-2.842,2.339c-0.875,0-1.643-0.276-2.027-0.528L684.292,72.289z"/>
</g>
<g>
</g>
<g>
</g>
<g>
</g>
</svg>
