<?xml version="1.0" encoding="utf-8"?>
<!-- Generator: Adobe Illustrator 17.0.0, SVG Export Plug-In . SVG Version: 6.00 Build 0)  -->
<!DOCTYPE svg PUBLIC "-//W3C//DTD SVG 1.1//EN" "http://www.w3.org/Graphics/SVG/1.1/DTD/svg11.dtd">
<svg version="1.1" id="Ebene_1" xmlns="http://www.w3.org/2000/svg" xmlns:xlink="http://www.w3.org/1999/xlink" x="0px" y="0px"
	 width="1680px" height="838px" viewBox="0 0 1680 838" enable-background="new 0 0 1680 838" xml:space="preserve">
<rect x="365.5" y="109.5" fill="#BCA9A9" width="600" height="154"/>
<rect x="965.5" y="109.5" fill="#BCA9A9" width="124" height="474"/>
<rect x="1089.5" y="109.5" fill="#BCA9A9" width="367" height="154"/>
<rect x="1303.5" y="263.5" fill="#BCA9A9" width="153" height="329"/>
<rect x="365.5" y="263.5" fill="#BCA9A9" width="330" height="329"/>
<rect x="133.5" y="109.5" fill="#BCA9A9" width="288" height="385"/>
<line fill="none" x1="133.5" y1="494.5" x2="220.5" y2="428"/>
<line fill="none" x1="220.5" y1="428" x2="365.5" y2="494.5"/>
<line fill="none" x1="220.5" y1="428" x2="133.5" y2="494.5"/>
<line fill="none" x1="795.5" y1="338.5" x2="793.5" y2="253.5"/>
<g>
	<path d="M684.04,73.5v-0.647l0.828-0.804c1.991-1.895,2.891-2.902,2.902-4.078c0-0.792-0.384-1.523-1.547-1.523
		c-0.708,0-1.295,0.36-1.655,0.66l-0.336-0.744c0.54-0.456,1.308-0.792,2.207-0.792c1.679,0,2.387,1.151,2.387,2.267
		c0,1.439-1.043,2.603-2.687,4.186l-0.624,0.576v0.024h3.502V73.5H684.04z"/>
</g>
<g>
</g>
<g>
</g>
<g>
</g>
</svg>
