<?xml version="1.0" encoding="utf-8"?>
<!-- Generator: Adobe Illustrator 17.0.0, SVG Export Plug-In . SVG Version: 6.00 Build 0)  -->
<!DOCTYPE svg PUBLIC "-//W3C//DTD SVG 1.1//EN" "http://www.w3.org/Graphics/SVG/1.1/DTD/svg11.dtd">
<svg version="1.1" id="Ebene_1" xmlns="http://www.w3.org/2000/svg" xmlns:xlink="http://www.w3.org/1999/xlink" x="0px" y="0px"
	 width="1680px" height="838px" viewBox="0 0 1680 838" enable-background="new 0 0 1680 838" xml:space="preserve">
<rect x="365.5" y="109.5" fill="#BCA9A9" width="600" height="154"/>
<rect x="965.5" y="109.5" fill="#BCA9A9" width="124" height="474"/>
<rect x="1089.5" y="109.5" fill="#BCA9A9" width="367" height="154"/>
<rect x="1303.5" y="263.5" fill="#BCA9A9" width="153" height="329"/>
<rect x="365.5" y="263.5" fill="#BCA9A9" width="330" height="329"/>
<rect x="133.5" y="109.5" fill="#BCA9A9" width="288" height="385"/>
<line fill="none" x1="133.5" y1="494.5" x2="220.5" y2="428"/>
<line fill="none" x1="220.5" y1="428" x2="365.5" y2="494.5"/>
<line fill="none" x1="220.5" y1="428" x2="133.5" y2="494.5"/>
<line fill="none" x1="795.5" y1="338.5" x2="793.5" y2="253.5"/>
<g>
</g>
<g>
</g>
<g>
	<path d="M1041.319,66.374c0,2.783-1.69,4.258-3.754,4.258c-2.135,0-3.634-1.655-3.634-4.102c0-2.567,1.596-4.246,3.754-4.246
		C1039.893,62.285,1041.319,63.976,1041.319,66.374z M1035.047,66.506c0,1.727,0.936,3.274,2.579,3.274
		c1.655,0,2.591-1.523,2.591-3.358c0-1.607-0.84-3.286-2.579-3.286C1035.911,63.136,1035.047,64.731,1035.047,66.506z"/>
	<path d="M1043.723,62.417v3.382h3.91v-3.382h1.055V70.5h-1.055v-3.79h-3.91v3.79h-1.044v-8.083H1043.723z"/>
	<path d="M1050.503,70.5v-8.083h1.14l2.591,4.09c0.6,0.947,1.067,1.799,1.451,2.626l0.023-0.012
		c-0.096-1.079-0.119-2.063-0.119-3.322v-3.382h0.983V70.5h-1.056l-2.566-4.102c-0.563-0.9-1.104-1.823-1.512-2.699l-0.036,0.012
		c0.061,1.019,0.084,1.991,0.084,3.334V70.5H1050.503z"/>
	<path d="M1062.585,66.71h-3.143v2.915h3.502V70.5h-4.546v-8.083h4.366v0.875h-3.322v2.555h3.143V66.71z"/>
	<path d="M1066.847,62.524c0.456-0.096,1.176-0.168,1.907-0.168c1.044,0,1.715,0.18,2.219,0.588c0.42,0.312,0.672,0.792,0.672,1.427
		c0,0.779-0.516,1.463-1.367,1.775v0.024c0.768,0.192,1.667,0.828,1.667,2.027c0,0.696-0.276,1.223-0.684,1.619
		c-0.563,0.516-1.476,0.755-2.795,0.755c-0.72,0-1.271-0.048-1.619-0.096V62.524z M1067.891,65.834h0.947
		c1.104,0,1.751-0.576,1.751-1.355c0-0.948-0.72-1.319-1.774-1.319c-0.48,0-0.756,0.036-0.924,0.072V65.834z M1067.891,69.708
		c0.204,0.036,0.504,0.048,0.875,0.048c1.08,0,2.075-0.396,2.075-1.571c0-1.103-0.947-1.559-2.087-1.559h-0.863V69.708z"/>
	<path d="M1077.537,66.71h-3.143v2.915h3.502V70.5h-4.546v-8.083h4.366v0.875h-3.322v2.555h3.143V66.71z"/>
	<path d="M1079.111,69.229c0.468,0.288,1.151,0.528,1.871,0.528c1.067,0,1.691-0.563,1.691-1.379c0-0.755-0.433-1.187-1.523-1.607
		c-1.319-0.468-2.135-1.151-2.135-2.291c0-1.259,1.043-2.195,2.614-2.195c0.827,0,1.428,0.192,1.787,0.396l-0.288,0.852
		c-0.264-0.144-0.804-0.384-1.535-0.384c-1.104,0-1.523,0.66-1.523,1.211c0,0.755,0.492,1.127,1.607,1.559
		c1.367,0.528,2.063,1.188,2.063,2.375c0,1.248-0.924,2.327-2.831,2.327c-0.779,0-1.631-0.228-2.063-0.516L1079.111,69.229z"/>
	<path d="M1090.819,70.236c-0.384,0.192-1.151,0.384-2.135,0.384c-2.279,0-3.994-1.439-3.994-4.09c0-2.531,1.715-4.246,4.222-4.246
		c1.008,0,1.644,0.216,1.919,0.36l-0.252,0.852c-0.396-0.192-0.959-0.336-1.631-0.336c-1.895,0-3.154,1.211-3.154,3.334
		c0,1.979,1.14,3.25,3.106,3.25c0.636,0,1.283-0.132,1.703-0.336L1090.819,70.236z"/>
	<path d="M1093.174,62.417v3.382h3.91v-3.382h1.055V70.5h-1.055v-3.79h-3.91v3.79h-1.044v-8.083H1093.174z"/>
	<path d="M1099.954,62.524c0.528-0.108,1.283-0.168,2.003-0.168c1.115,0,1.835,0.204,2.339,0.66c0.408,0.36,0.636,0.912,0.636,1.535
		c0,1.067-0.672,1.775-1.523,2.063v0.036c0.624,0.216,0.996,0.792,1.188,1.631c0.264,1.127,0.456,1.907,0.624,2.219h-1.079
		c-0.133-0.228-0.313-0.923-0.54-1.931c-0.24-1.115-0.672-1.535-1.619-1.571h-0.983V70.5h-1.044V62.524z M1100.998,66.207h1.067
		c1.115,0,1.823-0.612,1.823-1.535c0-1.043-0.756-1.5-1.859-1.511c-0.504,0-0.863,0.048-1.031,0.096V66.207z"/>
</g>
<g>
	<path d="M712.04,62.5v-0.647l0.828-0.804c1.991-1.895,2.891-2.902,2.902-4.078c0-0.792-0.384-1.523-1.547-1.523
		c-0.708,0-1.295,0.36-1.655,0.66l-0.336-0.744c0.54-0.456,1.308-0.792,2.207-0.792c1.679,0,2.387,1.151,2.387,2.267
		c0,1.439-1.043,2.603-2.687,4.186l-0.624,0.576v0.024h3.502V62.5H712.04z"/>
</g>
<g>
</g>
<g>
</g>
<g>
</g>
</svg>
